<svg xmlns="http://www.w3.org/2000/svg" width="16.875" height="15" viewBox="0 0 16.875 15">
  <path id="Icon_awesome-external-link-alt" data-name="Icon awesome-external-link-alt" d="M16.875.7v3.75a.7.7,0,0,1-1.2.5L14.629,3.9,7.494,11.038a.7.7,0,0,1-.994,0l-.663-.663a.7.7,0,0,1,0-.994l7.135-7.135L11.925,1.2a.7.7,0,0,1,.5-1.2h3.749A.7.7,0,0,1,16.875.7Zm-4.95,7.23-.469.469a.7.7,0,0,0-.206.5v4.226H1.875V3.75H9.609a.7.7,0,0,0,.5-.206l.469-.469a.7.7,0,0,0-.5-1.2H1.406A1.406,1.406,0,0,0,0,3.281V13.594A1.406,1.406,0,0,0,1.406,15H11.719a1.406,1.406,0,0,0,1.406-1.406V8.431A.7.7,0,0,0,11.925,7.933Z"/>
</svg>
